# xmcd
#
# Track frame offsets: 
#        300
#        21681
#        41649
#        62278
#        88916
#        109754
#        132409
#        149626
#        166523
#        193516
#        220203
#        233890
#
# Disc length: 3422 seconds
#
# Revision: 4
# Processed by: cddbd v1.5.2PL0 Copyright (c) Steve Scherf et al.
# Submitted via: ExactAudioCopy v1.0b1
#
DISCID=af0d5a0c
DTITLE=Toscho - Serious Fun
DYEAR=1996
DGENRE=Blues
TTITLE0=Dinner At Woolfie's
TTITLE1=The Blues
TTITLE2=Something You've Got
TTITLE3=Oh Lord
TTITLE4=Route 66
TTITLE5=All My Tears Went By
TTITLE6=Goin' To Miami
TTITLE7=Let Me Love You
TTITLE8=Mr. Cleanhead Blues
TTITLE9=Saturday Nite Fish Fry
TTITLE10=Mara's Dream
TTITLE11=Spinning Wheel
EXTD=Todor "Toscho" Todorovic - voc, guitar\nJosef Kappl - Bass\nWolfg
EXTD=ang Roggenkamp - Drums, Organ\nMick Franke - Wah Wah guitar, Keyb
EXTD=oards, Lap Steel\nDzidek Marienkiewicz - Hammond Organ, Keyboads\n
EXTD=Volker Winck - Barintone and Bass-Saxophone\nBacking Vocals: Jeff
EXTD=Chandler, Mary Forbes, Larry N. Gregory\nDrum Machine Programmin
EXTD=g: Mario Hammer YEAR: 1996
EXTT0=
EXTT1=
EXTT2=
EXTT3=
EXTT4=
EXTT5=
EXTT6=
EXTT7=
EXTT8=
EXTT9=
EXTT10=
EXTT11=
PLAYORDER=
